<?xml version="1.0" encoding="UTF-8" standalone="no"?>
<!-- Uploaded to: SVG Repo, www.svgrepo.com, Generator: SVG Repo Mixer Tools -->

<svg
   width="800px"
   height="800px"
   viewBox="0 0 32 32"
   version="1.1"
   id="svg326"
   sodipodi:docname="scss2.svg"
   inkscape:version="1.2.2 (b0a8486541, 2022-12-01)"
   xmlns:inkscape="http://www.inkscape.org/namespaces/inkscape"
   xmlns:sodipodi="http://sodipodi.sourceforge.net/DTD/sodipodi-0.dtd"
   xmlns="http://www.w3.org/2000/svg"
   xmlns:svg="http://www.w3.org/2000/svg"
   xmlns:rdf="http://www.w3.org/1999/02/22-rdf-syntax-ns#"
   xmlns:cc="http://creativecommons.org/ns#"
   xmlns:dc="http://purl.org/dc/elements/1.1/">
  <defs
     id="defs330" />
  <sodipodi:namedview
     id="namedview328"
     pagecolor="#ffffff"
     bordercolor="#000000"
     borderopacity="0.25"
     inkscape:showpageshadow="2"
     inkscape:pageopacity="0.0"
     inkscape:pagecheckerboard="0"
     inkscape:deskcolor="#d1d1d1"
     showgrid="false"
     inkscape:zoom="0.985"
     inkscape:cx="400"
     inkscape:cy="400"
     inkscape:window-width="1854"
     inkscape:window-height="1011"
     inkscape:window-x="0"
     inkscape:window-y="0"
     inkscape:window-maximized="1"
     inkscape:current-layer="svg326" />
  <title
     id="title320">file_type_scss2</title>
  <path
     id="path322"
     style="fill:#c69;fill-rule:evenodd"
     d="M 16 2 A 14 14 0 0 0 2 16 A 14 14 0 1 0 16 2 z M 19.904375 5.404375 C 22.355097 5.4061944 24.356063 6.3217517 24.782031 7.9920313 C 25.405031 10.437029 23.283029 13.362017 20.562031 14.411016 A 8.592 8.592 0 0 1 15.303984 14.931016 A 2.659 2.659 0 0 1 13.682969 13.657031 C 13.630969 13.521031 13.539969 13.291031 13.682969 13.212031 C 13.770969 13.164031 13.806031 13.175 14.042031 13.435 A 3.37 3.37 0 0 0 16.875 14.152969 C 21.360996 13.649969 24.062984 10.164982 23.208984 8.2889844 C 22.610985 6.9759857 19.152964 6.3830178 14.832969 8.5360156 C 9.563974 11.164013 9.2779687 13.32997 9.2329687 14.152969 C 9.1099689 16.415966 12.025986 17.607002 13.603984 19.29 C 13.640984 19.33 13.677031 19.37 13.712031 19.41 A 6.736 6.736 0 0 1 15.901016 19.11 C 18.453013 19.067 19.894 20.75297 19.835 22.252969 A 1.915 1.915 0 0 1 18.498984 23.96 C 18.351985 23.985 18.273031 23.988984 18.252031 23.873984 C 18.237031 23.793984 18.290031 23.758016 18.462031 23.651016 A 1.62 1.62 0 0 0 19.241016 22.551016 C 19.333016 21.909016 18.850998 20.375984 16.395 20.088984 A 5.639 5.639 0 0 0 14.252031 20.212031 A 4.824 4.824 0 0 1 13.78 24.5 A 4.4 4.4 0 0 1 9.0320313 26.425 C 8.4370318 26.26 7.5399851 25.031998 8.3139844 23.32 C 9.0499836 21.700002 12.185985 20.111 12.613984 19.9 L 12.613984 19.892969 C 11.160986 18.64197 7.6279683 16.956013 7.1279687 14.376016 C 6.9869689 13.645016 7.3299865 11.894998 9.4789844 9.885 A 19.605 19.605 0 0 1 16.122969 6.0739844 C 17.403311 5.6205161 18.707511 5.4034864 19.904375 5.404375 z M 13.217969 20.662969 L 13.091016 20.732969 A 9.478 9.478 0 0 0 10.617031 22.495 C 9.6740322 23.491999 9.4110318 24.742969 9.9370313 25.047969 C 10.424031 25.330968 11.560985 24.994968 12.373984 24.107969 A 3.911 3.911 0 0 0 13.021016 23.165 C 13.053682 23.101 13.084031 23.034333 13.112031 22.965 C 13.140031 22.895667 13.165651 22.825667 13.188984 22.755 A 3.584 3.584 0 0 0 13.217969 20.662969 z " />
  <metadata
     id="metadata349">
    <rdf:RDF>
      <cc:Work
         rdf:about="">
        <dc:title>file_type_scss2</dc:title>
      </cc:Work>
    </rdf:RDF>
  </metadata>
</svg>
