<?xml version="1.0" encoding="UTF-8" standalone="no"?>
<svg
   fill="none"
   height="128"
   viewBox="0 0 128 128"
   width="128"
   version="1.1"
   id="svg64"
   sodipodi:docname="typescript-logo-128.svg"
   inkscape:version="1.2.2 (b0a8486541, 2022-12-01)"
   xmlns:inkscape="http://www.inkscape.org/namespaces/inkscape"
   xmlns:sodipodi="http://sodipodi.sourceforge.net/DTD/sodipodi-0.dtd"
   xmlns="http://www.w3.org/2000/svg"
   xmlns:svg="http://www.w3.org/2000/svg">
  <defs
     id="defs68" />
  <sodipodi:namedview
     id="namedview66"
     pagecolor="#ffffff"
     bordercolor="#000000"
     borderopacity="0.25"
     inkscape:showpageshadow="2"
     inkscape:pageopacity="0.0"
     inkscape:pagecheckerboard="0"
     inkscape:deskcolor="#d1d1d1"
     showgrid="false"
     inkscape:zoom="6.15625"
     inkscape:cx="64"
     inkscape:cy="64"
     inkscape:window-width="1854"
     inkscape:window-height="1011"
     inkscape:window-x="0"
     inkscape:window-y="0"
     inkscape:window-maximized="1"
     inkscape:current-layer="svg64" />
  <path
     id="rect60"
     style="fill:#3178c6"
     d="M 6 0 C 2.6760033 0 0 2.6760033 0 6 L 0 122 C 0 125.324 2.6760033 128 6 128 L 122 128 C 125.324 128 128 125.324 128 122 L 128 6 C 128 2.6760033 125.324 0 122 0 L 6 0 z M 98.603516 52 C 101.86691 52 104.75735 52.197297 107.27734 52.591797 C 109.79734 52.986296 112.1191 53.591957 114.24609 54.410156 L 114.24609 67.515625 C 113.19709 66.785126 112.05441 66.14309 110.81641 65.587891 C 109.57741 65.032691 108.30319 64.572231 106.99219 64.207031 C 105.68119 63.841732 104.37803 63.571784 103.08203 63.396484 C 101.78503 63.221185 100.55447 63.132812 99.388672 63.132812 C 97.786373 63.132813 96.33053 63.28685 95.019531 63.59375 C 93.708533 63.90055 92.600365 64.331619 91.697266 64.886719 C 90.794167 65.441918 90.096862 66.10656 89.601562 66.880859 C 89.106263 67.655159 88.857422 68.523982 88.857422 69.488281 C 88.857422 70.54018 89.134001 71.481754 89.6875 72.314453 C 90.240999 73.147252 91.027176 73.936441 92.046875 74.681641 C 93.066474 75.42674 94.30502 76.157148 95.761719 76.873047 C 97.218317 77.588946 98.864021 78.328191 100.69922 79.087891 C 103.20522 80.13979 105.45517 81.256054 107.45117 82.439453 C 109.44617 83.622852 111.15894 84.960973 112.58594 86.451172 C 114.01394 87.94147 115.10528 89.642743 115.86328 91.556641 C 116.62028 93.470639 117 95.698137 117 98.240234 C 117 101.74653 116.33672 104.69127 115.01172 107.07227 C 113.68572 109.45426 111.88723 111.38142 109.61523 112.85742 C 107.34224 114.33342 104.69959 115.39216 101.68359 116.03516 C 98.668797 116.67816 95.485062 117 92.134766 117 C 88.697069 117 85.426916 116.70805 82.324219 116.12305 C 79.221522 115.53905 76.534116 114.66214 74.261719 113.49414 L 74.261719 99.46875 C 76.796316 101.60175 79.549987 103.20158 82.521484 104.26758 C 85.493081 105.33458 88.493541 105.86719 91.523438 105.86719 C 93.300536 105.86719 94.852236 105.70577 96.177734 105.38477 C 97.503333 105.06377 98.609448 104.61883 99.498047 104.04883 C 100.38655 103.47883 101.04933 102.80525 101.48633 102.03125 C 101.92333 101.25725 102.14258 100.41792 102.14258 99.511719 C 102.14258 98.28442 101.79375 97.188908 101.09375 96.224609 C 100.39475 95.26041 99.439468 94.36898 98.230469 93.550781 C 97.02147 92.732582 95.588333 91.943293 93.927734 91.183594 C 92.267236 90.423895 90.475532 89.650227 88.552734 88.861328 C 83.658439 86.81593 80.008966 84.316531 77.605469 81.365234 C 75.201971 78.414037 74 74.850371 74 70.671875 C 74 67.399178 74.655798 64.586573 75.966797 62.234375 C 77.277696 59.882177 79.062515 57.947233 81.320312 56.427734 C 83.57811 54.908336 86.192565 53.790118 89.164062 53.074219 C 92.13566 52.358319 95.282419 52 98.603516 52 z M 18 53 L 69 53 L 69 64.554688 L 50.703125 64.554688 L 50.703125 116 L 36.207031 116 L 36.207031 64.554688 L 18 64.554688 L 18 53 z " />
</svg>
