<svg viewBox="0 0 23 14" fill="black" xmlns="http://www.w3.org/2000/svg">
  <path d="M20.7482 0H18.8887C21.641 3.93959 21.6571 10.0462 18.8887 14H20.7482C23.516 10.0462 23.4999 3.93959 20.7482 0Z" fill-opacity="0.4"/>
  <path d="M2.07027 3.05176e-05C-0.682028 3.93963 -0.698142 10.0463 2.07027 14H3.92985C1.16208 10.0463 1.1782 3.93963 3.92985 3.05176e-05H2.07027Z" fill-opacity="0.4"/>
  <path d="M12.0135 13.6771C11.815 13.9297 11.4089 13.7892 11.4089 13.4682V10.3853C11.4089 10.0114 11.106 9.70846 10.7321 9.70846H7.32818C7.05295 9.70846 6.89245 9.39713 7.05295 9.17347L9.29089 6.04023C9.61124 5.59225 9.29089 4.9696 8.73979 4.9696H4.62036C4.34513 4.9696 4.18463 4.65828 4.34512 4.43461L7.24632 0.372548C7.31013 0.283598 7.41262 0.230743 7.52155 0.230743H16.1671C16.4424 0.230743 16.6029 0.542069 16.4424 0.765734L14.2044 3.89897C13.8841 4.34695 14.2044 4.9696 14.7555 4.9696H18.1595C18.4418 4.9696 18.6004 5.29511 18.4257 5.51748L12.0142 13.6777L12.0135 13.6771Z" fill-opacity="0.7"/>
</svg>
