<?xml version="1.0" encoding="UTF-8" standalone="no"?>
<svg
   viewBox="0 0 774 773.99999"
   version="1.1"
   id="svg10"
   sodipodi:docname="webpack-icon-clean.svg"
   width="774"
   height="774"
   inkscape:version="1.2.2 (b0a8486541, 2022-12-01)"
   xmlns:inkscape="http://www.inkscape.org/namespaces/inkscape"
   xmlns:sodipodi="http://sodipodi.sourceforge.net/DTD/sodipodi-0.dtd"
   xmlns="http://www.w3.org/2000/svg"
   xmlns:svg="http://www.w3.org/2000/svg"
   xmlns:rdf="http://www.w3.org/1999/02/22-rdf-syntax-ns#"
   xmlns:cc="http://creativecommons.org/ns#"
   xmlns:dc="http://purl.org/dc/elements/1.1/">
  <defs
     id="defs14" />
  <sodipodi:namedview
     id="namedview12"
     pagecolor="#ffffff"
     bordercolor="#000000"
     borderopacity="0.25"
     inkscape:showpageshadow="2"
     inkscape:pageopacity="0.0"
     inkscape:pagecheckerboard="0"
     inkscape:deskcolor="#d1d1d1"
     showgrid="false"
     inkscape:zoom="0.89985153"
     inkscape:cx="196.14347"
     inkscape:cy="437.85001"
     inkscape:window-width="1854"
     inkscape:window-height="1011"
     inkscape:window-x="0"
     inkscape:window-y="0"
     inkscape:window-maximized="1"
     inkscape:current-layer="svg10" />
  <title
     id="title2">icon</title>
  <path
     fill="#8ed6fb"
     d="m 706.51801,590.21658 -305.1,172.6 v -134.4 l 190.1,-104.6 z m 20.9,-18.9 v -360.9 l -111.6,64.5 v 232 z m -657.9,18.9 305.1,172.6 v -134.4 l -190.2,-104.6 z m -20.9,-18.9 v -360.9 l 111.6,64.5 v 232 z m 13.1,-384.3 312.9,-177.000002 V 139.91658 l -200.5,110.3 -1.6,0.9 z m 652.6,0 -312.9,-177.000002 V 139.91658 l 200.5,110.2 1.6,0.9 z"
     id="path6" />
  <path
     fill="#1c78c0"
     d="m 374.61801,597.81658 -187.6,-103.2 v -204.3 l 187.6,108.3 z m 26.8,0 187.6,-103.1 v -204.4 l -187.6,108.3 z m -13.4,-207 z m -188.3,-124.1 188.3,-103.5 188.3,103.5 -188.3,108.7 z"
     id="path8" />
  <metadata
     id="metadata270">
    <rdf:RDF>
      <cc:Work
         rdf:about="">
        <dc:title>icon</dc:title>
      </cc:Work>
    </rdf:RDF>
  </metadata>
</svg>
