<svg fill="currentColor" stroke="currentColor" xmlns="http://www.w3.org/2000/svg">
  <defs>
    <!-- General usage icons (https://remixicon.com/) -->
    <symbol id="arrow-left-wide" viewBox="0 0 24 24">
      <path d="M8.3685 12L13.1162 3.03212L14.8838 3.9679L10.6315 12L14.8838 20.0321L13.1162 20.9679L8.3685 12Z"/>
    </symbol>
    <symbol id="arrow-right-wide" viewBox="0 0 24 24">
      <path d="M15.6315 12L10.8838 3.03212L9.11622 3.9679L13.3685 12L9.11622 20.0321L10.8838 20.9679L15.6315 12Z"/>
    </symbol>
    <symbol id="close" viewBox="0 0 24 24">
      <path d="M11.9997 10.5865L16.9495 5.63672L18.3637 7.05093L13.4139 12.0007L18.3637 16.9504L16.9495 18.3646L11.9997 13.4149L7.04996 18.3646L5.63574 16.9504L10.5855 12.0007L5.63574 7.05093L7.04996 5.63672L11.9997 10.5865Z"/>
    </symbol>
    <symbol id="close-circle" viewBox="0 0 24 24">
      <path d="M12 22C6.47715 22 2 17.5228 2 12C2 6.47715 6.47715 2 12 2C17.5228 2 22 6.47715 22 12C22 17.5228 17.5228 22 12 22ZM12 20C16.4183 20 20 16.4183 20 12C20 7.58172 16.4183 4 12 4C7.58172 4 4 7.58172 4 12C4 16.4183 7.58172 20 12 20ZM12 10.5858L14.8284 7.75736L16.2426 9.17157L13.4142 12L16.2426 14.8284L14.8284 16.2426L12 13.4142L9.17157 16.2426L7.75736 14.8284L10.5858 12L7.75736 9.17157L9.17157 7.75736L12 10.5858Z"/>
    </symbol>
    <symbol id="loader-5" viewBox="0 0 24 24">
      <path d="M12 3C16.9706 3 21 7.02944 21 12H19C19 8.13401 15.866 5 12 5V3Z"/>
    </symbol>

    <!-- Logos/Brands (https://remixicon.com/) -->
    <symbol id="angular" viewBox="0 0 24 24">
      <path d="M12.0002 2L21.3002 5.32L19.8817 17.63L12.0002 22L4.11867 17.63L2.7002 5.32L12.0002 2ZM12.0002 4.21L6.18645 17.26H8.35412L9.52286 14.34H14.4576L15.6263 17.26H17.794L12.0002 4.21ZM13.6984 12.54H10.302L12.0002 8.45L13.6984 12.54Z"/>
    </symbol>
    <symbol id="codepen" viewBox="0 0 24 24">
      <path d="M12 10.2018L9.30278 12L12 13.7982L14.6972 12L12 10.2018ZM16.5 10.7982L19.1972 9L13 4.86852V8.46482L16.5 10.7982ZM20 10.8685L18.3028 12L20 13.1315V10.8685ZM16.5 13.2018L13 15.5352V19.1315L19.1972 15L16.5 13.2018ZM11 8.46482V4.86852L4.80278 9L7.5 10.7982L11 8.46482ZM4.80278 15L11 19.1315V15.5352L7.5 13.2018L4.80278 15ZM5.69722 12L4 10.8685V13.1315L5.69722 12ZM2 9C2 8.66565 2.1671 8.35342 2.4453 8.16795L11.4453 2.16795C11.7812 1.94402 12.2188 1.94402 12.5547 2.16795L21.5547 8.16795C21.8329 8.35342 22 8.66565 22 9V15C22 15.3344 21.8329 15.6466 21.5547 15.8321L12.5547 21.8321C12.2188 22.056 11.7812 22.056 11.4453 21.8321L2.4453 15.8321C2.1671 15.6466 2 15.3344 2 15V9Z"/>
    </symbol>
    <symbol id="css3" viewBox="0 0 24 24">
      <path d="M12 10.2018L9.30278 12L12 13.7982L14.6972 12L12 10.2018ZM16.5 10.7982L19.1972 9L13 4.86852V8.46482L16.5 10.7982ZM20 10.8685L18.3028 12L20 13.1315V10.8685ZM16.5 13.2018L13 15.5352V19.1315L19.1972 15L16.5 13.2018ZM11 8.46482V4.86852L4.80278 9L7.5 10.7982L11 8.46482ZM4.80278 15L11 19.1315V15.5352L7.5 13.2018L4.80278 15ZM5.69722 12L4 10.8685V13.1315L5.69722 12ZM2 9C2 8.66565 2.1671 8.35342 2.4453 8.16795L11.4453 2.16795C11.7812 1.94402 12.2188 1.94402 12.5547 2.16795L21.5547 8.16795C21.8329 8.35342 22 8.66565 22 9V15C22 15.3344 21.8329 15.6466 21.5547 15.8321L12.5547 21.8321C12.2188 22.056 11.7812 22.056 11.4453 21.8321L2.4453 15.8321C2.1671 15.6466 2 15.3344 2 15V9Z"/>
    </symbol>
    <symbol id="github" viewBox="0 0 24 24">
      <path d="M12.001 2C6.47598 2 2.00098 6.475 2.00098 12C2.00098 16.425 4.86348 20.1625 8.83848 21.4875C9.33848 21.575 9.52598 21.275 9.52598 21.0125C9.52598 20.775 9.51348 19.9875 9.51348 19.15C7.00098 19.6125 6.35098 18.5375 6.15098 17.975C6.03848 17.6875 5.55098 16.8 5.12598 16.5625C4.77598 16.375 4.27598 15.9125 5.11348 15.9C5.90098 15.8875 6.46348 16.625 6.65098 16.925C7.55098 18.4375 8.98848 18.0125 9.56348 17.75C9.65098 17.1 9.91348 16.6625 10.201 16.4125C7.97598 16.1625 5.65098 15.3 5.65098 11.475C5.65098 10.3875 6.03848 9.4875 6.67598 8.7875C6.57598 8.5375 6.22598 7.5125 6.77598 6.1375C6.77598 6.1375 7.61348 5.875 9.52598 7.1625C10.326 6.9375 11.176 6.825 12.026 6.825C12.876 6.825 13.726 6.9375 14.526 7.1625C16.4385 5.8625 17.276 6.1375 17.276 6.1375C17.826 7.5125 17.476 8.5375 17.376 8.7875C18.0135 9.4875 18.401 10.375 18.401 11.475C18.401 15.3125 16.0635 16.1625 13.8385 16.4125C14.201 16.725 14.5135 17.325 14.5135 18.2625C14.5135 19.6 14.501 20.675 14.501 21.0125C14.501 21.275 14.6885 21.5875 15.1885 21.4875C19.259 20.1133 21.9999 16.2963 22.001 12C22.001 6.475 17.526 2 12.001 2Z"/>
    </symbol>
    <symbol id="html5" viewBox="0 0 24 24">
      <path d="M12 18.1778L16.6192 16.9222L17.2434 10.1444H9.02648L8.82219 7.88889H17.4477L17.6747 5.67778H6.32535L6.96091 12.3556H14.7806L14.5195 15.2222L12 15.8889L9.48045 15.2222L9.32156 13.3778H7.0517L7.38083 16.9222L12 18.1778ZM3 2H21L19.377 20L12 22L4.62295 20L3 2Z"/>
    </symbol>
    <symbol id="javascript" viewBox="0 0 24 24">
      <path d="M6 3C4.34315 3 3 4.34315 3 6V18C3 19.6569 4.34315 21 6 21H18C19.6569 21 21 19.6569 21 18V6C21 4.34315 19.6569 3 18 3H6ZM13.3344 16.055C14.0531 16.6343 14.7717 16.9203 15.4904 16.913C15.9304 16.913 16.2677 16.8323 16.5024 16.671C16.7297 16.517 16.8434 16.297 16.8434 16.011C16.8434 15.7177 16.7297 15.4683 16.5024 15.263C16.2677 15.0577 15.8241 14.8523 15.1714 14.647C14.3867 14.4197 13.7817 14.1263 13.3564 13.767C12.9384 13.4077 12.7257 12.9053 12.7184 12.26C12.7184 11.6513 12.9824 11.1417 13.5104 10.731C14.0237 10.3203 14.6801 10.115 15.4794 10.115C16.5941 10.115 17.4887 10.3863 18.1634 10.929L17.3934 12.128C17.1221 11.9153 16.8104 11.7613 16.4584 11.666C16.1064 11.556 15.7911 11.501 15.5124 11.501C15.1311 11.501 14.8267 11.5707 14.5994 11.71C14.3721 11.8493 14.2584 12.0327 14.2584 12.26C14.2584 12.5093 14.3977 12.722 14.6764 12.898C14.9551 13.0667 15.4317 13.2537 16.1064 13.459C16.9204 13.701 17.4997 14.0237 17.8444 14.427C18.1891 14.8303 18.3614 15.3437 18.3614 15.967C18.3614 16.605 18.1157 17.155 17.6244 17.617C17.1404 18.0717 16.4364 18.31 15.5124 18.332C14.3024 18.332 13.2904 17.969 12.4764 17.243L13.3344 16.055ZM7.80405 16.693C8.03872 16.8397 8.32105 16.913 8.65105 16.913C8.99572 16.913 9.28172 16.814 9.50905 16.616C9.73639 16.4107 9.85005 16.055 9.85005 15.549V10.247H11.3351V15.835C11.3131 16.7003 11.0637 17.3237 10.5871 17.705C10.3157 17.9323 10.0187 18.0937 9.69605 18.189C9.37339 18.2843 9.06172 18.332 8.76105 18.332C8.21105 18.332 7.72339 18.2367 7.29805 18.046C6.84339 17.8407 6.46205 17.4777 6.15405 16.957L7.18805 16.11C7.37872 16.3667 7.58405 16.561 7.80405 16.693Z"/>
    </symbol>
    <symbol id="linkedin" viewBox="0 0 24 24">
      <path d="M18.3362 18.339H15.6707V14.1622C15.6707 13.1662 15.6505 11.8845 14.2817 11.8845C12.892 11.8845 12.6797 12.9683 12.6797 14.0887V18.339H10.0142V9.75H12.5747V10.9207H12.6092C12.967 10.2457 13.837 9.53325 15.1367 9.53325C17.8375 9.53325 18.337 11.3108 18.337 13.6245V18.339H18.3362ZM7.00373 8.57475C6.14573 8.57475 5.45648 7.88025 5.45648 7.026C5.45648 6.1725 6.14648 5.47875 7.00373 5.47875C7.85873 5.47875 8.55173 6.1725 8.55173 7.026C8.55173 7.88025 7.85798 8.57475 7.00373 8.57475ZM8.34023 18.339H5.66723V9.75H8.34023V18.339ZM19.6697 3H4.32923C3.59498 3 3.00098 3.5805 3.00098 4.29675V19.7033C3.00098 20.4202 3.59498 21 4.32923 21H19.6675C20.401 21 21.001 20.4202 21.001 19.7033V4.29675C21.001 3.5805 20.401 3 19.6675 3H19.6697Z"/>
    </symbol>
    <symbol id="nodejs" viewBox="0 0 24 24">
      <path d="M11.174 22.5552C11.4297 22.6937 11.7051 22.7729 12.0002 22.7729C12.2952 22.7729 12.5902 22.6937 12.8262 22.5947L20.6745 18.023C21.1854 17.7261 21.5 17.172 21.5 16.5781V7.45437C21.5 6.86056 21.1854 6.30644 20.6745 6.00954L12.8262 1.43778C12.3345 1.16072 11.6657 1.16072 11.174 1.43778L3.32604 6.00954C2.81468 6.30644 2.5 6.86056 2.5 7.45437V16.5781C2.5 17.172 2.81468 17.7261 3.32604 18.023L5.3913 19.2105C6.39448 19.7052 6.74854 19.7052 7.20089 19.7052C8.67604 19.7052 9.52182 18.7948 9.52182 17.2313V8.22623C9.52182 8.08765 9.4038 7.98875 9.28578 7.98875H8.28271C8.14495 7.98875 8.04667 8.10749 8.04667 8.22623V17.2313C8.04667 17.924 7.31891 18.6167 6.15844 18.023L4.01453 16.776C3.93578 16.7365 3.89651 16.6376 3.89651 16.5584V7.43453C3.89651 7.35536 3.93578 7.25647 4.01453 7.21689L11.8625 2.66486C11.9214 2.62528 12.0198 2.62528 12.0984 2.66486L19.9466 7.21689C20.0247 7.25647 20.0648 7.33563 20.0648 7.43453V16.5584C20.0648 16.6573 20.0247 16.7365 19.9466 16.776L12.0984 21.3479C12.0394 21.3875 11.9411 21.3875 11.8625 21.3479L9.85624 20.1407C9.79723 20.1011 9.71849 20.0812 9.65948 20.1208C9.10875 20.4375 9.01047 20.477 8.47937 20.6552C8.36135 20.6948 8.16469 20.774 8.55802 20.9917L11.174 22.5552ZM10.2887 13.5698C10.2887 14.9156 10.9967 16.499 14.4393 16.499C16.9169 16.499 18.3531 15.5093 18.3531 13.7677C18.3531 12.0657 17.212 11.6104 14.7929 11.2938C12.3539 10.9772 12.0982 10.799 12.0982 10.225C12.0982 9.75008 12.3146 9.11679 14.1242 9.11679C15.7367 9.11679 16.3463 9.47302 16.5828 10.5615C16.6023 10.6605 16.701 10.7397 16.7987 10.7397H17.8411C17.9008 10.7397 17.9594 10.7001 17.9994 10.6605C18.0385 10.6011 18.058 10.5418 18.058 10.4824C17.9008 8.58241 16.6619 7.71155 14.1438 7.71155C11.9015 7.71155 10.564 8.66157 10.564 10.2646C10.564 11.9865 11.9015 12.4615 14.0454 12.6792C16.6219 12.9365 16.8192 13.3126 16.8192 13.8271C16.8192 14.7177 16.1109 15.0938 14.4588 15.0938C12.3736 15.0938 11.9212 14.5792 11.7639 13.5302C11.7639 13.4115 11.6655 13.3323 11.5475 13.3323H10.5247C10.387 13.3323 10.2887 13.4511 10.2887 13.5698Z"/>
    </symbol>
    <symbol id="npm" viewBox="0 0 24 24">
      <path d="M20.001 3C20.5533 3 21.001 3.44772 21.001 4V20C21.001 20.5523 20.5533 21 20.001 21H4.00098C3.44869 21 3.00098 20.5523 3.00098 20V4C3.00098 3.44772 3.44869 3 4.00098 3H20.001ZM17.001 7H7.00098V17H12.001V9.5H14.501V17H17.001V7Z"/>
    </symbol>
    <symbol id="php" viewBox="0 0 24 24">
      <path d="M4.931 9.45962H3.59366L2.86408 13.211H4.05124C4.83891 13.211 5.42541 13.0622 5.81074 12.7661C6.19608 12.4686 6.45533 11.9742 6.58991 11.28C6.72024 10.6142 6.66075 10.1439 6.41425 9.87045C6.16633 9.59703 5.67333 9.45962 4.931 9.45962ZM7.38183 13.6133C7.01208 13.9675 6.56725 14.2338 6.08275 14.3939C5.60675 14.5469 4.999 14.6262 4.26233 14.6262H2.58924L2.126 17.0076H0.173828L1.91633 8.04578H5.67049C6.79958 8.04578 7.62266 8.34187 8.14116 8.93545C8.65966 9.52762 8.81549 10.355 8.60866 11.4175C8.52944 11.8379 8.38357 12.243 8.17658 12.6174C7.97399 12.9786 7.70908 13.3115 7.38183 13.6133ZM13.0825 14.6262L13.8517 10.661C13.941 10.2105 13.907 9.90162 13.7554 9.7387C13.6038 9.57437 13.2794 9.4922 12.7822 9.4922H11.2352L10.2378 14.6276H8.29983L10.0423 5.66437H11.9789L11.5157 8.0472H13.2412C14.3277 8.0472 15.0757 8.23703 15.488 8.61528C15.9002 8.99353 16.0235 9.60695 15.8606 10.4555L15.0502 14.6262H13.0825ZM23.8449 11.4175C23.767 11.8382 23.621 12.2435 23.4128 12.6174C23.2102 12.9786 22.9453 13.3115 22.6181 13.6133C22.2481 13.9664 21.8044 14.233 21.319 14.3939C20.843 14.5469 20.2352 14.6262 19.4972 14.6262H17.8255L17.3622 17.009H15.4101L17.1526 8.0472H20.9053C22.0344 8.0472 22.8575 8.34328 23.376 8.93687C23.8945 9.52762 24.0517 10.355 23.8449 11.4175ZM20.1687 9.45962H18.8327L18.1017 13.211H19.2889C20.078 13.211 20.6645 13.0622 21.0484 12.7661C21.4337 12.4686 21.693 11.9742 21.829 11.28C21.9593 10.6142 21.8984 10.1439 21.6519 9.87045C21.4054 9.59703 20.9096 9.45962 20.1687 9.45962Z"/>
    </symbol>
    <symbol id="reactjs" viewBox="0 0 24 24">
      <path d="M14.448 16.2394C13.8809 17.0412 13.2933 17.7714 12.7015 18.4146C14.3738 20.0375 15.9291 20.7975 16.792 20.2993C17.6549 19.8011 17.7744 18.0742 17.2051 15.8145C16.3521 16.0054 15.426 16.1492 14.448 16.2394ZM13.138 16.3265C12.7641 16.342 12.3845 16.3499 12.0003 16.3499C11.6161 16.3499 11.2365 16.342 10.8627 16.3265C11.2394 16.8188 11.6208 17.2749 12.0003 17.6905C12.3798 17.2749 12.7612 16.8188 13.138 16.3265ZM18.1787 8.43278C20.8434 9.19718 22.5837 10.4672 22.5837 11.9999C22.5837 13.5325 20.8434 14.8026 18.1787 15.567C18.8491 18.2569 18.6193 20.399 17.292 21.1653C15.9647 21.9316 13.9947 21.0595 12.0003 19.134C10.006 21.0595 8.03596 21.9316 6.70866 21.1653C5.38136 20.399 5.15158 18.2569 5.82195 15.567C3.15724 14.8026 1.41699 13.5325 1.41699 11.9999C1.41699 10.4672 3.15724 9.19718 5.82195 8.43278C5.15158 5.74288 5.38136 3.60075 6.70866 2.83443C8.03596 2.06811 10.006 2.94019 12.0003 4.86569C13.9947 2.94019 15.9647 2.06811 17.292 2.83443C18.6193 3.60075 18.8491 5.74288 18.1787 8.43278ZM17.2051 8.18527C17.7744 5.92558 17.6549 4.19865 16.792 3.70046C15.9291 3.20226 14.3738 3.96221 12.7015 5.58509C13.2933 6.2283 13.8809 6.95849 14.448 7.76031C15.426 7.85054 16.3521 7.99432 17.2051 8.18527ZM6.79554 15.8145C6.22624 18.0742 6.34577 19.8011 7.20866 20.2993C8.07155 20.7975 9.62688 20.0375 11.2992 18.4146C10.7073 17.7714 10.1197 17.0412 9.55262 16.2394C8.57467 16.1492 7.6485 16.0054 6.79554 15.8145ZM10.8627 7.67324C11.2365 7.65776 11.6161 7.64987 12.0003 7.64987C12.3845 7.64987 12.7641 7.65776 13.138 7.67324C12.7612 7.18096 12.3798 6.7248 12.0003 6.30922C11.6208 6.7248 11.2394 7.18096 10.8627 7.67324ZM9.55262 7.76031C10.1197 6.95849 10.7073 6.2283 11.2992 5.58509C9.62688 3.96221 8.07155 3.20226 7.20866 3.70046C6.34577 4.19865 6.22624 5.92558 6.79554 8.18527C7.6485 7.99432 8.57467 7.85054 9.55262 7.76031ZM13.8939 15.2797C14.2395 14.7728 14.5772 14.2366 14.9015 13.6749C15.2258 13.1131 15.5213 12.5526 15.7875 11.9999C15.5213 11.4471 15.2258 10.8866 14.9015 10.3249C14.5772 9.76311 14.2395 9.22694 13.8939 8.72005C13.2821 8.6742 12.649 8.64987 12.0003 8.64987C11.3517 8.64987 10.7185 8.6742 10.1067 8.72005C9.76112 9.22694 9.42347 9.76311 9.09914 10.3249C8.77481 10.8866 8.4793 11.4471 8.21312 11.9999C8.4793 12.5526 8.77481 13.1131 9.09914 13.6749C9.42347 14.2366 9.76112 14.7728 10.1067 15.2797C10.7185 15.3255 11.3517 15.3499 12.0003 15.3499C12.649 15.3499 13.2821 15.3255 13.8939 15.2797ZM15.1785 15.1484C15.7932 15.0683 16.3789 14.9661 16.9286 14.8452C16.7584 14.3087 16.5541 13.7504 16.3161 13.178C16.1426 13.5095 15.9596 13.8421 15.7675 14.1749C15.5754 14.5076 15.3788 14.8324 15.1785 15.1484ZM8.82218 8.85133C8.20747 8.93147 7.62174 9.03367 7.07208 9.15454C7.24223 9.691 7.44659 10.2494 7.68454 10.8218C7.85806 10.4903 8.04101 10.1576 8.23311 9.82487C8.42522 9.49212 8.62185 9.16736 8.82218 8.85133ZM7.07208 14.8452C7.62174 14.9661 8.20747 15.0683 8.82218 15.1484C8.62185 14.8324 8.42522 14.5076 8.23311 14.1749C8.04101 13.8421 7.85806 13.5095 7.68454 13.178C7.44659 13.7504 7.24223 14.3087 7.07208 14.8452ZM6.09439 14.6C6.35551 13.7659 6.69407 12.8919 7.10491 11.9999C6.69407 11.1078 6.35551 10.2339 6.09439 9.39969C3.85279 10.0365 2.41699 11.0035 2.41699 11.9999C2.41699 12.9962 3.85279 13.9632 6.09439 14.6ZM16.9286 9.15454C16.3789 9.03367 15.7932 8.93147 15.1785 8.85133C15.3788 9.16736 15.5754 9.49212 15.7675 9.82487C15.9596 10.1576 16.1426 10.4903 16.3161 10.8218C16.5541 10.2494 16.7584 9.691 16.9286 9.15454ZM17.9063 9.39969C17.6451 10.2339 17.3066 11.1078 16.8957 11.9999C17.3066 12.8919 17.6451 13.7659 17.9063 14.6C20.1479 13.9632 21.5837 12.9962 21.5837 11.9999C21.5837 11.0035 20.1479 10.0365 17.9063 9.39969ZM12.0003 13.879C10.9625 13.879 10.1212 13.0377 10.1212 11.9999C10.1212 10.962 10.9625 10.1207 12.0003 10.1207C13.0382 10.1207 13.8795 10.962 13.8795 11.9999C13.8795 13.0377 13.0382 13.879 12.0003 13.879Z"/>
    </symbol>
    <symbol id="ubuntu" viewBox="0 0 24 24">
      <path d="M22.001 12C22.001 17.5224 17.524 22 12.001 22C6.47798 22 2.00098 17.5224 2.00098 12C2.00098 6.4771 6.47833 2 12.001 2C17.524 2 22.001 6.4771 22.001 12ZM5.20128 10.6642C4.46363 10.6642 3.86613 11.2623 3.86613 12C3.86613 12.7372 4.46363 13.3349 5.20128 13.3349C5.93848 13.3349 6.53628 12.7372 6.53628 12C6.53628 11.2622 5.93848 10.6642 5.20128 10.6642ZM14.7337 16.7325C14.0954 17.1015 13.8763 17.9175 14.2454 18.5558C14.6137 19.1942 15.4296 19.4137 16.0682 19.0448C16.7067 18.6759 16.9257 17.8595 16.5571 17.2208C16.1884 16.5832 15.3721 16.3644 14.7337 16.7325V16.7325ZM8.10133 12C8.10133 10.6808 8.75663 9.5152 9.75958 8.80915L8.78348 7.174C7.61518 7.955 6.74598 9.1485 6.38498 10.545C6.80648 10.8895 7.07613 11.4131 7.07613 12C7.07613 12.586 6.80643 13.1097 6.38493 13.4543C6.74583 14.8516 7.61503 16.0448 8.78343 16.826L9.75953 15.1903C8.75653 14.4848 8.10128 13.32 8.10128 12L8.10133 12ZM12.001 8.09975C14.0385 8.09975 15.7098 9.66175 15.8853 11.654L17.788 11.6261C17.6942 10.1551 17.0518 8.83495 16.0645 7.86435C15.5568 8.05565 14.9705 8.02685 14.4637 7.7342C13.9559 7.4412 13.6376 6.9472 13.5506 6.4104C13.0571 6.27455 12.538 6.2005 12.001 6.2005C11.0782 6.2005 10.2053 6.41685 9.43058 6.80035L10.3582 8.46275C10.8577 8.23045 11.4141 8.09975 12.001 8.09975ZM12.001 15.8995C11.4141 15.8995 10.8576 15.7691 10.3585 15.537L9.43063 17.1991C10.2055 17.5831 11.0782 17.8004 12.001 17.8004C12.538 17.8004 13.0575 17.7255 13.5506 17.5888C13.6376 17.0526 13.9561 16.5586 14.4638 16.2652C14.971 15.9726 15.5569 15.9435 16.0646 16.1349C17.0519 15.1642 17.6942 13.8441 17.7881 12.3732L15.8846 12.3456C15.7099 14.338 14.0386 15.8996 12.0011 15.8996L12.001 15.8995ZM14.7334 7.26675C15.372 7.6349 16.1883 7.4169 16.5566 6.77845C16.9257 6.1396 16.7071 5.32395 16.0683 4.95505C15.4296 4.58605 14.6138 4.8048 14.2447 5.44345C13.8763 6.08195 14.0954 6.89795 14.7334 7.2667V7.26675Z"/>
    </symbol>
    <symbol id="windows" viewBox="0 0 24 24">
      <path d="M3.00098 5.47902L10.3778 4.4625V11.5902H3.00098V5.47902ZM3.00098 18.521L10.3778 19.5375V12.4982H3.00098V18.521ZM11.1894 19.646L21.001 21V12.4982H11.1894V19.646ZM11.1894 4.35402V11.5902H21.001V3L11.1894 4.35402Z"/>
    </symbol>

    <!-- Remaining Logos/Brands (https://www.svgrepo.com) -->
    <symbol id="git" viewBox="0 0 32 32">
      <path d="M29.472,14.753,17.247,2.528a1.8,1.8,0,0,0-2.55,0L12.158,5.067l3.22,3.22a2.141,2.141,0,0,1,2.712,2.73l3.1,3.1a2.143,2.143,0,1,1-1.285,1.21l-2.895-2.895v7.617a2.141,2.141,0,1,1-1.764-.062V12.3a2.146,2.146,0,0,1-1.165-2.814L10.911,6.314,2.528,14.7a1.8,1.8,0,0,0,0,2.551L14.753,29.472a1.8,1.8,0,0,0,2.55,0L29.472,17.3a1.8,1.8,0,0,0,0-2.551"/><path d="M12.158,5.067l3.22,3.22a2.141,2.141,0,0,1,2.712,2.73l3.1,3.1a2.143,2.143,0,1,1-1.285,1.21l-2.895-2.895v7.617a2.141,2.141,0,1,1-1.764-.062V12.3a2.146,2.146,0,0,1-1.165-2.814L10.911,6.314" style="fill:transparent"/>
    </symbol>
    <symbol id="gulp" viewBox="0 0 32 32">
      <path d="M15.942,24.095a15.353,15.353,0,0,1-3.518-.393,6.761,6.761,0,0,1-1.006-.311l.813,1.389.318,4.34c0,.487,1.546.881,3.452.881s3.452-.394,3.452-.881l.252-4.387.769-1.346a6.691,6.691,0,0,1-1.015.315A15.353,15.353,0,0,1,15.942,24.095ZM20.5,9.973a34.285,34.285,0,0,1-4.5.261,34.285,34.285,0,0,1-4.5-.261,8.43,8.43,0,0,1-1.4-.292,2.03,2.03,0,0,1-.345-.143L10.5,16.4q.052-.177.116-.354a6.711,6.711,0,0,1,.3-.707,6.264,6.264,0,0,1,.376-.653,5.049,5.049,0,0,1,.432-.566,3.45,3.45,0,0,1,.47-.445,2.238,2.238,0,0,1,.487-.291,1.235,1.235,0,0,1,.487-.1,1.051,1.051,0,0,1,.538.152,1.541,1.541,0,0,1,.486.492.393.393,0,0,1,.066.154.838.838,0,0,1,.014.147.391.391,0,0,1-.078.257.233.233,0,0,1-.185.094.237.237,0,0,1-.182-.1,1.953,1.953,0,0,1-.188-.295.712.712,0,0,0-.215-.251.453.453,0,0,0-.255-.078.788.788,0,0,0-.457.177,2.652,2.652,0,0,0-.481.468,5.131,5.131,0,0,0-.457.666,6.946,6.946,0,0,0-.386.767,5.477,5.477,0,0,0-.267.774,2.751,2.751,0,0,0-.1.685,1.64,1.64,0,0,0,.014.208.7.7,0,0,0,.052.194.389.389,0,0,0,.1.143.247.247,0,0,0,.166.056.561.561,0,0,0,.257-.076,1.928,1.928,0,0,0,.3-.2,3.741,3.741,0,0,0,.31-.279q.156-.155.29-.315t.238-.306a1.808,1.808,0,0,0,.156-.255l.284-.85a.4.4,0,0,1,.136-.2.3.3,0,0,1,.173-.058.267.267,0,0,1,.085.014.209.209,0,0,1,.13.125.3.3,0,0,1,.02.114,1.653,1.653,0,0,1-.031.326,2.587,2.587,0,0,1-.078.3q-.047.145-.105.291t-.113.306a.694.694,0,0,0-.044.114q-.032.1-.078.241t-.1.324l-.11.365q-.057.186-.108.365t-.093.324l-.069.242c-.018.065-.03.1-.034.116a.753.753,0,0,1-.049.128.848.848,0,0,1-.079.134.488.488,0,0,1-.1.1.186.186,0,0,1-.113.042.159.159,0,0,1-.142-.065.455.455,0,0,1-.044-.239v-.051a.514.514,0,0,1,0-.054A1.283,1.283,0,0,1,12.3,18.8q.043-.159.1-.36t.128-.416q.069-.215.124-.385-.162.181-.351.36a3.788,3.788,0,0,1-.388.322,2.3,2.3,0,0,1-.4.233.947.947,0,0,1-.388.09.694.694,0,0,1-.368-.094c-.019-.011-.036-.024-.053-.037l.415,4.352c.108.271,2.142.936,4.825.936s4.719-.666,4.825-.937l.6-5.174-.143.132a6.253,6.253,0,0,1-.484.41,2.184,2.184,0,0,1-.444.266,1.153,1.153,0,0,1-.464.094.562.562,0,0,1-.359-.1.337.337,0,0,1-.127-.278v-.027a.184.184,0,0,1,0-.031.657.657,0,0,1,.095-.25,2.868,2.868,0,0,1,.2-.293q.116-.152.247-.308t.243-.295a2.847,2.847,0,0,0,.185-.255.383.383,0,0,0,.073-.188.085.085,0,0,0-.031-.069.16.16,0,0,0-.1-.025.573.573,0,0,0-.252.063,1.251,1.251,0,0,0-.257.17,2.324,2.324,0,0,0-.247.244,3.6,3.6,0,0,0-.226.286q-.105.148-.192.3t-.148.277l-.052.112q-.034.072-.073.163t-.084.186q-.044.1-.081.181l-.066.152q-.029.067-.041.092t-.05.123q-.035.09-.081.212l-.1.255-.095.253-.078.21c-.022.06-.037.1-.043.123a1.32,1.32,0,0,1-.072.177.73.73,0,0,1-.095.147.433.433,0,0,1-.122.1.312.312,0,0,1-.154.038.3.3,0,0,1-.182-.052.236.236,0,0,1-.072-.2.631.631,0,0,1,.018-.148,1.322,1.322,0,0,1,.046-.15c.018-.05.037-.1.057-.145s.037-.092.053-.136q.165-.362.336-.725t.328-.72c.022-.05.042-.1.063-.147l-.019.019a4.054,4.054,0,0,1-.4.338,2.1,2.1,0,0,1-.391.233.922.922,0,0,1-.377.087.487.487,0,0,1-.209-.04.349.349,0,0,1-.134-.108.433.433,0,0,1-.072-.163c0-.021-.008-.044-.011-.066-.036.028-.072.055-.108.081a2.192,2.192,0,0,1-.373.215.824.824,0,0,1-.33.081.312.312,0,0,1-.238-.1.482.482,0,0,1-.091-.333,1.824,1.824,0,0,1,.049-.387,1.978,1.978,0,0,1-.2.286,1.741,1.741,0,0,1-.272.264,1.358,1.358,0,0,1-.342.193,1.122,1.122,0,0,1-.412.074.737.737,0,0,1-.194-.025.407.407,0,0,1-.163-.087.436.436,0,0,1-.113-.165.679.679,0,0,1-.043-.259s0-.039.012-.11a2.357,2.357,0,0,1,.078-.336q.066-.23.2-.6t.388-.886a.489.489,0,0,1,.148-.2.308.308,0,0,1,.182-.06.335.335,0,0,1,.089.013.286.286,0,0,1,.086.04.215.215,0,0,1,.064.069.187.187,0,0,1,.024.1.251.251,0,0,1-.009.069.824.824,0,0,1-.066.161q-.05.1-.118.228t-.142.277q-.075.148-.139.307a3.069,3.069,0,0,0-.11.324,1.4,1.4,0,0,0-.052.32.238.238,0,0,0,.031.119.107.107,0,0,0,.1.054.638.638,0,0,0,.379-.13,1.683,1.683,0,0,0,.333-.324,3.108,3.108,0,0,0,.276-.416q.124-.222.206-.407a2.063,2.063,0,0,0,.1-.264,2.626,2.626,0,0,1,.1-.26.8.8,0,0,1,.119-.2.211.211,0,0,1,.168-.08.208.208,0,0,1,.174.083.316.316,0,0,1,.064.2.566.566,0,0,1-.041.179q-.041.114-.1.26t-.136.313q-.073.167-.136.338a3.352,3.352,0,0,0-.1.336,1.26,1.26,0,0,0-.041.306.117.117,0,0,0,.134.13.586.586,0,0,0,.235-.065,1.607,1.607,0,0,0,.295-.183c.026-.02.052-.04.077-.061a2.511,2.511,0,0,1,.1-.327q.107-.282.217-.561l.2-.51.925-2.333a.391.391,0,0,1,.148-.2.354.354,0,0,1,.188-.058.272.272,0,0,1,.172.061.238.238,0,0,1,.078.2.407.407,0,0,1-.026.137,1.664,1.664,0,0,1-.066.156q-.076.17-.182.416t-.226.535q-.121.289-.247.6l-.247.609q-.12.3-.226.562l-.182.461a2.031,2.031,0,0,0-.066.194.713.713,0,0,0-.032.2.177.177,0,0,0,.018.087.073.073,0,0,0,.07.033.4.4,0,0,0,.16-.045,1.638,1.638,0,0,0,.208-.119q.112-.074.232-.17t.24-.2q.119-.1.228-.206t.194-.19a.137.137,0,0,1,.047-.031c.034-.1.066-.2.093-.3q.024-.065.067-.185a2.535,2.535,0,0,1,.1-.235,1.007,1.007,0,0,1,.124-.2A.193.193,0,0,1,19.185,16a.24.24,0,0,1,.177.056.226.226,0,0,1,.055.165.6.6,0,0,1-.006.069c0,.031-.009.065-.015.1s-.013.068-.02.1a.456.456,0,0,1-.02.069q.113-.123.244-.244a2.513,2.513,0,0,1,.272-.219,1.571,1.571,0,0,1,.287-.159.755.755,0,0,1,.293-.061.71.71,0,0,1,.2.029.575.575,0,0,1,.177.085.444.444,0,0,1,.127.141.388.388,0,0,1,.049.2.78.78,0,0,1-.075.317,2.293,2.293,0,0,1-.188.338q-.113.17-.244.331t-.246.293l-.193.224a.338.338,0,0,0-.081.125.1.1,0,0,0,.028.071.128.128,0,0,0,.092.027.352.352,0,0,0,.153-.058,2.6,2.6,0,0,0,.282-.2q.182-.143.461-.383c.128-.11.277-.241.446-.39l.808-7.48a2.024,2.024,0,0,1-.345.143A8.427,8.427,0,0,1,20.5,9.973ZM16,8.2c-3.492,0-6.322.39-6.322.872S12.5,9.942,16,9.942s6.322-.39,6.322-.872S19.488,8.2,16,8.2Zm2.524,1.127c0,.113-.336.2-.751.2s-.751-.092-.751-.2.336-.2.751-.2S18.521,9.212,18.521,9.325Z"/><path d="M17.17,9.234a.034.034,0,0,0-.006.018c0,.073.271.132.6.132s.6-.059.6-.132l.79-3.2,3.142-3.317,0,0c.066-.075-.068-.308-.292-.508s-.466-.267-.541-.191l0,0L18.122,5.559Z"/>
    </symbol>
    <symbol id="mysql" viewBox="0 0 32 32">
      <path d="M8.785,6.865a3.055,3.055,0,0,0-.785.1V7h.038a6.461,6.461,0,0,0,.612.785c.154.306.288.611.441.917.019-.019.038-.039.038-.039a1.074,1.074,0,0,0,.4-.957,4.314,4.314,0,0,1-.23-.4c-.115-.191-.364-.287-.517-.44" style="fill:#5d87a1;fill-rule:evenodd"/><path d="M27.78,23.553a8.849,8.849,0,0,0-3.712.536c-.287.115-.745.115-.785.478.154.153.172.4.307.613a4.467,4.467,0,0,0,.995,1.167c.4.306.8.611,1.225.879.745.461,1.588.728,2.314,1.187.422.268.842.612,1.264.9.21.153.343.4.611.5v-.058a3.844,3.844,0,0,0-.291-.613c-.191-.19-.383-.363-.575-.554a9.118,9.118,0,0,0-1.99-1.932c-.613-.422-1.953-1-2.2-1.7l-.039-.039a7.69,7.69,0,0,0,1.321-.308c.65-.172,1.243-.133,1.912-.3.307-.077.862-.268.862-.268v-.3c-.342-.34-.587-.795-.947-1.116a25.338,25.338,0,0,0-3.122-2.328c-.587-.379-1.344-.623-1.969-.946-.226-.114-.6-.17-.737-.36a7.594,7.594,0,0,1-.776-1.457c-.548-1.04-1.079-2.193-1.551-3.293a20.236,20.236,0,0,0-.965-2.157A19.078,19.078,0,0,0,11.609,5a9.07,9.07,0,0,0-2.421-.776c-.474-.02-.946-.057-1.419-.075A7.55,7.55,0,0,1,6.9,3.485C5.818,2.8,3.038,1.328,2.242,3.277,1.732,4.508,3,5.718,3.435,6.343A8.866,8.866,0,0,1,4.4,7.762c.133.322.171.663.3,1A22.556,22.556,0,0,0,5.687,11.3a8.946,8.946,0,0,0,.7,1.172c.153.209.417.3.474.645a5.421,5.421,0,0,0-.436,1.419,8.336,8.336,0,0,0,.549,6.358c.3.473,1.022,1.514,1.987,1.116.851-.34.662-1.419.908-2.364.056-.229.019-.379.132-.53V19.3s.483,1.061.723,1.6a10.813,10.813,0,0,0,2.4,2.59A3.514,3.514,0,0,1,14,24.657V25h.427A1.054,1.054,0,0,0,14,24.212a9.4,9.4,0,0,1-.959-1.16,24.992,24.992,0,0,1-2.064-3.519c-.3-.6-.553-1.258-.793-1.857-.11-.231-.11-.58-.295-.7a7.266,7.266,0,0,0-.884,1.313,11.419,11.419,0,0,0-.517,2.921c-.073.02-.037,0-.073.038-.589-.155-.792-.792-1.014-1.332a8.756,8.756,0,0,1-.166-5.164c.128-.405.683-1.681.461-2.068-.111-.369-.48-.58-.682-.871a7.767,7.767,0,0,1-.663-1.237C5.912,9.5,5.69,8.3,5.212,7.216a10.4,10.4,0,0,0-.921-1.489A9.586,9.586,0,0,1,3.276,4.22c-.092-.213-.221-.561-.074-.793a.3.3,0,0,1,.259-.252c.238-.212.921.058,1.16.174a9.2,9.2,0,0,1,1.824.967c.258.194.866.685.866.685h.18c.612.133,1.3.037,1.876.21a12.247,12.247,0,0,1,2.755,1.32,16.981,16.981,0,0,1,5.969,6.545c.23.439.327.842.537,1.3.4.94.9,1.9,1.3,2.814a12.578,12.578,0,0,0,1.36,2.564c.286.4,1.435.612,1.952.822a13.7,13.7,0,0,1,1.32.535c.651.4,1.3.861,1.913,1.3.305.23,1.262.708,1.32,1.091"/>
    </symbol>
    <symbol id="scss2" viewBox="0 0 32 32">
      <path d="M 16 2 A 14 14 0 0 0 2 16 A 14 14 0 1 0 16 2 z M 19.904375 5.404375 C 22.355097 5.4061944 24.356063 6.3217517 24.782031 7.9920313 C 25.405031 10.437029 23.283029 13.362017 20.562031 14.411016 A 8.592 8.592 0 0 1 15.303984 14.931016 A 2.659 2.659 0 0 1 13.682969 13.657031 C 13.630969 13.521031 13.539969 13.291031 13.682969 13.212031 C 13.770969 13.164031 13.806031 13.175 14.042031 13.435 A 3.37 3.37 0 0 0 16.875 14.152969 C 21.360996 13.649969 24.062984 10.164982 23.208984 8.2889844 C 22.610985 6.9759857 19.152964 6.3830178 14.832969 8.5360156 C 9.563974 11.164013 9.2779687 13.32997 9.2329687 14.152969 C 9.1099689 16.415966 12.025986 17.607002 13.603984 19.29 C 13.640984 19.33 13.677031 19.37 13.712031 19.41 A 6.736 6.736 0 0 1 15.901016 19.11 C 18.453013 19.067 19.894 20.75297 19.835 22.252969 A 1.915 1.915 0 0 1 18.498984 23.96 C 18.351985 23.985 18.273031 23.988984 18.252031 23.873984 C 18.237031 23.793984 18.290031 23.758016 18.462031 23.651016 A 1.62 1.62 0 0 0 19.241016 22.551016 C 19.333016 21.909016 18.850998 20.375984 16.395 20.088984 A 5.639 5.639 0 0 0 14.252031 20.212031 A 4.824 4.824 0 0 1 13.78 24.5 A 4.4 4.4 0 0 1 9.0320313 26.425 C 8.4370318 26.26 7.5399851 25.031998 8.3139844 23.32 C 9.0499836 21.700002 12.185985 20.111 12.613984 19.9 L 12.613984 19.892969 C 11.160986 18.64197 7.6279683 16.956013 7.1279687 14.376016 C 6.9869689 13.645016 7.3299865 11.894998 9.4789844 9.885 A 19.605 19.605 0 0 1 16.122969 6.0739844 C 17.403311 5.6205161 18.707511 5.4034864 19.904375 5.404375 z M 13.217969 20.662969 L 13.091016 20.732969 A 9.478 9.478 0 0 0 10.617031 22.495 C 9.6740322 23.491999 9.4110318 24.742969 9.9370313 25.047969 C 10.424031 25.330968 11.560985 24.994968 12.373984 24.107969 A 3.911 3.911 0 0 0 13.021016 23.165 C 13.053682 23.101 13.084031 23.034333 13.112031 22.965 C 13.140031 22.895667 13.165651 22.825667 13.188984 22.755 A 3.584 3.584 0 0 0 13.217969 20.662969 z " />
    </symbol>
    <symbol id="yarn" viewBox="0 0 32 32">
      <path d="M28.208,24.409a10.493,10.493,0,0,0-3.959,1.822,23.743,23.743,0,0,1-5.835,2.642,1.632,1.632,0,0,1-.983.55A62.228,62.228,0,0,1,10.984,30c-1.163.009-1.876-.3-2.074-.776a1.573,1.573,0,0,1,.866-2.074,3.759,3.759,0,0,1-.514-.379c-.171-.171-.352-.514-.406-.388-.225.55-.343,1.894-.947,2.5-.83.839-2.4.559-3.328.072-1.019-.541.072-1.813.072-1.813a.73.73,0,0,1-.992-.343,4.847,4.847,0,0,1-.667-2.949,5.374,5.374,0,0,1,1.749-2.895,9.334,9.334,0,0,1,.658-4.4,10.445,10.445,0,0,1,3.165-3.661S6.628,10.747,7.35,8.817c.469-1.262.658-1.253.812-1.308a3.633,3.633,0,0,0,1.452-.857,5.265,5.265,0,0,1,4.41-1.7S15.2,1.4,16.277,2.09a18.349,18.349,0,0,1,1.533,2.886s1.281-.748,1.425-.469a11.334,11.334,0,0,1,.523,6.132,14.01,14.01,0,0,1-2.6,5.411c-.135.225,1.551.938,2.615,3.887.983,2.7.108,4.96.262,5.212.027.045.036.063.036.063s1.127.09,3.391-1.308A8.5,8.5,0,0,1,27.739,22.3a1.081,1.081,0,0,1,.469,2.11Z" />
    </symbol>

    <!-- Modified SVGs from official sources -->
    <symbol id="typescript" viewBox="0 0 128 128">
      <path d="M 6 0 C 2.6760033 0 0 2.6760033 0 6 L 0 122 C 0 125.324 2.6760033 128 6 128 L 122 128 C 125.324 128 128 125.324 128 122 L 128 6 C 128 2.6760033 125.324 0 122 0 L 6 0 z M 98.603516 52 C 101.86691 52 104.75735 52.197297 107.27734 52.591797 C 109.79734 52.986296 112.1191 53.591957 114.24609 54.410156 L 114.24609 67.515625 C 113.19709 66.785126 112.05441 66.14309 110.81641 65.587891 C 109.57741 65.032691 108.30319 64.572231 106.99219 64.207031 C 105.68119 63.841732 104.37803 63.571784 103.08203 63.396484 C 101.78503 63.221185 100.55447 63.132812 99.388672 63.132812 C 97.786373 63.132813 96.33053 63.28685 95.019531 63.59375 C 93.708533 63.90055 92.600365 64.331619 91.697266 64.886719 C 90.794167 65.441918 90.096862 66.10656 89.601562 66.880859 C 89.106263 67.655159 88.857422 68.523982 88.857422 69.488281 C 88.857422 70.54018 89.134001 71.481754 89.6875 72.314453 C 90.240999 73.147252 91.027176 73.936441 92.046875 74.681641 C 93.066474 75.42674 94.30502 76.157148 95.761719 76.873047 C 97.218317 77.588946 98.864021 78.328191 100.69922 79.087891 C 103.20522 80.13979 105.45517 81.256054 107.45117 82.439453 C 109.44617 83.622852 111.15894 84.960973 112.58594 86.451172 C 114.01394 87.94147 115.10528 89.642743 115.86328 91.556641 C 116.62028 93.470639 117 95.698137 117 98.240234 C 117 101.74653 116.33672 104.69127 115.01172 107.07227 C 113.68572 109.45426 111.88723 111.38142 109.61523 112.85742 C 107.34224 114.33342 104.69959 115.39216 101.68359 116.03516 C 98.668797 116.67816 95.485062 117 92.134766 117 C 88.697069 117 85.426916 116.70805 82.324219 116.12305 C 79.221522 115.53905 76.534116 114.66214 74.261719 113.49414 L 74.261719 99.46875 C 76.796316 101.60175 79.549987 103.20158 82.521484 104.26758 C 85.493081 105.33458 88.493541 105.86719 91.523438 105.86719 C 93.300536 105.86719 94.852236 105.70577 96.177734 105.38477 C 97.503333 105.06377 98.609448 104.61883 99.498047 104.04883 C 100.38655 103.47883 101.04933 102.80525 101.48633 102.03125 C 101.92333 101.25725 102.14258 100.41792 102.14258 99.511719 C 102.14258 98.28442 101.79375 97.188908 101.09375 96.224609 C 100.39475 95.26041 99.439468 94.36898 98.230469 93.550781 C 97.02147 92.732582 95.588333 91.943293 93.927734 91.183594 C 92.267236 90.423895 90.475532 89.650227 88.552734 88.861328 C 83.658439 86.81593 80.008966 84.316531 77.605469 81.365234 C 75.201971 78.414037 74 74.850371 74 70.671875 C 74 67.399178 74.655798 64.586573 75.966797 62.234375 C 77.277696 59.882177 79.062515 57.947233 81.320312 56.427734 C 83.57811 54.908336 86.192565 53.790118 89.164062 53.074219 C 92.13566 52.358319 95.282419 52 98.603516 52 z M 18 53 L 69 53 L 69 64.554688 L 50.703125 64.554688 L 50.703125 116 L 36.207031 116 L 36.207031 64.554688 L 18 64.554688 L 18 53 z " />
    </symbol>
    <symbol id="webpack" viewBox="0 0 774 774">
      <path fill-opacity="0.7" d="m 706.51801,590.21658 -305.1,172.6 v -134.4 l 190.1,-104.6 z m 20.9,-18.9 v -360.9 l -111.6,64.5 v 232 z m -657.9,18.9 305.1,172.6 v -134.4 l -190.2,-104.6 z m -20.9,-18.9 v -360.9 l 111.6,64.5 v 232 z m 13.1,-384.3 312.9,-177.000002 V 139.91658 l -200.5,110.3 -1.6,0.9 z m 652.6,0 -312.9,-177.000002 V 139.91658 l 200.5,110.2 1.6,0.9 z" />
      <path fill-opacity="1" d="m 374.61801,597.81658 -187.6,-103.2 v -204.3 l 187.6,108.3 z m 26.8,0 187.6,-103.1 v -204.4 l -187.6,108.3 z m -13.4,-207 z m -188.3,-124.1 188.3,-103.5 188.3,103.5 -188.3,108.7 z" />
    </symbol>
    <symbol id="vite" viewBox="0 0 23 14">
      <path d="M20.7482 0H18.8887C21.641 3.93959 21.6571 10.0462 18.8887 14H20.7482C23.516 10.0462 23.4999 3.93959 20.7482 0Z" fill-opacity="0.4"/>
      <path d="M2.07027 3.05176e-05C-0.682028 3.93963 -0.698142 10.0463 2.07027 14H3.92985C1.16208 10.0463 1.1782 3.93963 3.92985 3.05176e-05H2.07027Z" fill-opacity="0.4"/>
      <path d="M12.0135 13.6771C11.815 13.9297 11.4089 13.7892 11.4089 13.4682V10.3853C11.4089 10.0114 11.106 9.70846 10.7321 9.70846H7.32818C7.05295 9.70846 6.89245 9.39713 7.05295 9.17347L9.29089 6.04023C9.61124 5.59225 9.29089 4.9696 8.73979 4.9696H4.62036C4.34513 4.9696 4.18463 4.65828 4.34512 4.43461L7.24632 0.372548C7.31013 0.283598 7.41262 0.230743 7.52155 0.230743H16.1671C16.4424 0.230743 16.6029 0.542069 16.4424 0.765734L14.2044 3.89897C13.8841 4.34695 14.2044 4.9696 14.7555 4.9696H18.1595C18.4418 4.9696 18.6004 5.29511 18.4257 5.51748L12.0142 13.6777L12.0135 13.6771Z" fill-opacity="0.7"/>
    </symbol>
  </defs>
</svg>
